<svg width="36" height="36" viewBox="0 0 36 36" fill="none" xmlns="http://www.w3.org/2000/svg">
<circle cx="18" cy="18" r="16.5" fill="white"/>
<path d="M18 0C8.1 0 0 8.1 0 18C0 27.9 8.1 36 18 36C27.9 36 36 27.9 36 18C36 8.1 27.9 0 18 0ZM18 3.8565C22.7565 3.8565 26.8725 6.171 29.4435 9.6435L27.5145 11.316C25.329 8.358 21.8565 6.429 18 6.429C12.9855 6.429 8.7435 9.6435 7.071 14.1435L21.8565 28.929C25.5855 27.6435 28.416 24.429 29.316 20.571H23.1435V18H32.1435C32.1435 24.6855 27.3855 30.342 21.0855 31.755L4.245 14.916C5.658 8.6145 11.3145 3.855 18 3.855V3.8565ZM3.8565 18.2565L17.8725 32.1435C14.2725 32.0145 10.671 30.729 7.971 28.029C5.271 25.329 3.8565 21.7275 3.8565 18.2565V18.2565Z" fill="#663399"/>
</svg>
