<svg width="36" height="36" viewBox="0 0 36 36" fill="none" xmlns="http://www.w3.org/2000/svg">
<g clip-path="url(#clip0_2_46)">
<path d="M35.319 16.395L19.6005 0.678001C18.6945 -0.226499 17.2275 -0.226499 16.3185 0.678001L13.062 3.9405L17.202 8.0805C18.1695 7.758 19.2705 7.9755 20.0355 8.742C20.8095 9.5145 21.0225 10.629 20.6925 11.592L24.6795 15.582C25.647 15.2475 26.76 15.465 27.5295 16.2345C28.611 17.3145 28.611 19.0605 27.5295 20.1405C26.451 21.219 24.708 21.219 23.6295 20.1405C22.821 19.329 22.6185 18.135 23.0235 17.1465L19.29 13.4325V23.22C19.554 23.349 19.803 23.5245 20.022 23.742C21.0915 24.8235 21.0915 26.5665 20.022 27.642C18.9435 28.7235 17.1885 28.7235 16.1085 27.642C15.03 26.5635 15.03 24.8235 16.1085 23.745C16.3815 23.475 16.689 23.271 17.016 23.136V13.2525C16.6905 13.116 16.38 12.9195 16.116 12.651C15.2985 11.8335 15.102 10.638 15.522 9.6375L11.454 5.55L0.675 16.3215C-0.225 17.229 -0.225 18.6975 0.675 19.605L16.395 35.3205C17.301 36.2265 18.768 36.2265 19.674 35.3205L35.319 19.6755C36.2265 18.771 36.2265 17.3025 35.319 16.395" fill="#F05032"/>
</g>
<defs>
<clipPath id="clip0_2_46">
<rect width="36" height="36" fill="white"/>
</clipPath>
</defs>
</svg>
