<svg width="36" height="36" viewBox="0 0 36 36" fill="none" xmlns="http://www.w3.org/2000/svg">
<rect width="36" height="36" fill="black"/>
<path d="M0 0H36V36H0V0ZM33.051 27.414C32.7885 25.7715 31.719 24.3915 28.5465 23.1045C27.4425 22.587 26.2155 22.227 25.851 21.3945C25.7145 20.8995 25.6935 20.6295 25.782 20.337C26.007 19.368 27.1545 19.077 28.0545 19.347C28.6395 19.527 29.1795 19.977 29.5185 20.697C31.0695 19.683 31.0695 19.683 32.151 19.0095C31.746 18.3795 31.545 18.108 31.272 17.8395C30.327 16.782 29.0685 16.242 27.021 16.2885L25.9635 16.422C24.9495 16.6695 23.9835 17.2095 23.3985 17.9295C21.6885 19.866 22.182 23.241 24.252 24.636C26.2995 26.166 29.2935 26.502 29.676 27.9435C30.036 29.6985 28.371 30.261 26.727 30.0585C25.5105 29.7885 24.837 29.1795 24.0945 28.0545L21.3495 29.631C21.6645 30.351 22.0245 30.6645 22.5645 31.2945C25.1745 33.9285 31.6995 33.7935 32.871 29.7885C32.9145 29.6535 33.231 28.731 32.982 27.3135L33.051 27.414V27.414ZM19.5765 16.5465H16.2045C16.2045 19.4535 16.191 22.3425 16.191 25.254C16.191 27.102 16.2855 28.7985 15.984 29.3205C15.489 30.354 14.214 30.222 13.635 30.0405C13.041 29.7465 12.7395 29.3415 12.39 28.758C12.2955 28.6005 12.225 28.464 12.1995 28.464L9.462 30.1515C9.9195 31.0965 10.587 31.9095 11.448 32.427C12.7305 33.192 14.454 33.4395 16.2585 33.0345C17.433 32.6955 18.4455 31.998 18.975 30.918C19.74 29.523 19.578 27.813 19.5705 25.899C19.5885 22.818 19.5705 19.7355 19.5705 16.6305L19.5765 16.5465V16.5465Z" fill="#F7DF1E"/>
</svg>
