<?xml version="1.0" encoding="UTF-8"?>
<!-- Created with Inkscape (http://www.inkscape.org/) -->
<svg width="30.626" height="36" version="1.1" xmlns="http://www.w3.org/2000/svg" xmlns:cc="http://creativecommons.org/ns#" xmlns:dc="http://purl.org/dc/elements/1.1/" xmlns:rdf="http://www.w3.org/1999/02/22-rdf-syntax-ns#" xmlns:xlink="http://www.w3.org/1999/xlink">
 <title>Tux</title>
 <metadata>
  <rdf:RDF>
   <cc:Work rdf:about="">
    <dc:format>image/svg+xml</dc:format>
    <dc:type rdf:resource="http://purl.org/dc/dcmitype/StillImage"/>
    <dc:title>Tux</dc:title>
    <dc:date>20 June 2012</dc:date>
    <dc:creator>
     <cc:Agent>
      <dc:title>Garrett LeSage</dc:title>
     </cc:Agent>
    </dc:creator>
    <cc:license rdf:resource="http://creativecommons.org/publicdomain/zero/1.0/"/>
    <dc:contributor>
     <cc:Agent>
      <dc:title>Larry Ewing, the creator of the original Tux graphic</dc:title>
     </cc:Agent>
    </dc:contributor>
    <dc:subject>
     <rdf:Bag>
      <rdf:li>tux</rdf:li>
      <rdf:li>Linux</rdf:li>
      <rdf:li>penguin</rdf:li>
      <rdf:li>logo</rdf:li>
     </rdf:Bag>
    </dc:subject>
    <dc:rights>
     <cc:Agent>
      <dc:title>Larry Ewing, Garrett LeSage</dc:title>
     </cc:Agent>
    </dc:rights>
    <dc:source>https://github.com/garrett/Tux</dc:source>
   </cc:Work>
   <cc:License rdf:about="http://creativecommons.org/publicdomain/zero/1.0/">
    <cc:permits rdf:resource="http://creativecommons.org/ns#Reproduction"/>
    <cc:permits rdf:resource="http://creativecommons.org/ns#Distribution"/>
    <cc:permits rdf:resource="http://creativecommons.org/ns#DerivativeWorks"/>
   </cc:License>
  </rdf:RDF>
 </metadata>
 <g transform="translate(146.93 332.55)">
  <g transform="matrix(.32847 0 0 .32847 182.22 -19.87)" fill-rule="evenodd" stroke-width=".050717">
   <path d="m-968.01-943.73c-0.98168 1.9404-1.6279 4.326-1.6841 7.2524-0.23856 12.413 0.54017 10.493 0.0596 16.189-0.17686 2.0962-1.1077 5.2395-2.6362 8.3074-1.7476 3.5076-4.0576 6.254-5.4145 8.2701-2.7766 4.1255-5.4574 7.6978-7.4806 11.797-1.1497 2.3292-1.9758 5.6038-2.3347 7.9582-0.23995 1.5738-0.26782 3.6087-0.21408 5.5157-1.4228 1.2361-2.1537 3.3181-3.6157 4.9053-0.94304 1.0214-2.7659 1.3531-4.7861 1.7444-1.7333 0.33173-3.5672 1.0064-4.2084 2.039-0.072 0.1152-0.1363 0.23464-0.1957 0.35737-1.4597 2.8106 0.3269 7.6344-0.5445 11.203-0.369 1.5171-0.9989 2.9448-1.0102 4.2531 0 0.67472 0.1491 1.3904 0.6188 2.203 0.5144 0.89463 1.6438 1.532 3.2504 2.0874 1.4985 0.51815 3.4443 0.97294 5.7068 1.506l0.78282 0.18265c1.0176 0.24234 2.0315 0.48459 3.0566 0.68964 0.66724 0.13791 1.055 0.20498 1.3866 0.26466 1.4425 0.25719 1.9905 0.35783 5.8373 1.86 0.92821 0.3616 1.957 0.74923 3.0454 1.081 2.1508 0.66723 4.5812 1.1518 6.8252 0.74554 1.137-0.20496 2.2104-0.63743 3.1647-1.3829 0.98779-0.77157 1.9383-1.8116 2.613-2.8664 0.18037-0.28132 0.34713-0.57252 0.49317-0.87218 0.12797-0.25289 0.24157-0.512 0.33642-0.77648 0.0904-0.24106 0.16578-0.49117 0.22069-0.74224 0.90509-0.45132 3.1448-1.1323 8.4773-1.1839 8.0366-0.0783 13.389 2.8218 13.389 2.8218l4e-3 -0.0596c0.0671 0.38023 0.14908 0.73428 0.25349 1.0735 0.15286 0.49574 0.35785 0.95053 0.63365 1.3904 0.27961 0.43614 0.62629 0.84988 1.0661 1.2562 0.4771 0.43984 1.0512 0.84619 1.7072 1.1928 0.61131 0.32058 1.2972 0.58893 2.0501 0.78652 0.68586 0.17895 1.4276 0.29824 2.2141 0.3355 0.73438 0.0373 1.5022 4e-3 2.3036-0.11181 1.3531-0.19382 2.3968-0.62249 3.2951-1.1779 0.87599-0.54049 1.5917-1.1891 2.3223-1.8526l0.0224-0.0186c0.48089-0.43616 0.96916-0.87969 1.5096-1.286 0.36153-0.27212 0.69333-0.52563 1.0102-0.77157 0.46964-0.3616 0.73061-0.56658 0.99527-0.77534 0.79398-0.62249 1.614-1.2711 2.4341-1.8824 0.84988-0.62996 1.7519-1.2711 2.7323-1.8973 0.74177-0.4771 1.5767-1.0176 2.3782-1.5431 0.82756-0.54426 1.6923-1.1145 2.5086-1.6737 1.4581-0.99032 3.4704-2.2178 4.2327-3.8122 0.25461-0.49322 0.3913-1.0219 0.35431-1.5902-0.11927-1.8227-2.2775-3.4666-4.186-5.0993-0.92821-0.79767-1.8638-1.5879-2.3521-2.3968-0.39509-0.65228-0.87229-1.6364-1.0064-2.3521-0.37672-1.9846-0.36867-3.4673-1.3084-4.7782-0.86236-1.2031-1.6161-1.5492-2.9453-1.6994-0.19923-0.0225-0.38652-0.0505-0.5681-0.08 0.86348-3.1789 1.1111-5.1972 0.95311-7.8602-0.36087-6.0834-4.1825-12.521-9.1767-19.855-1.6843-2.4732-3.6549-5.0309-5.0548-7.2236-1.6218-2.5402-3.3111-5.4782-3.9621-8.1475-0.49017-2.0099-0.69846-5.8035-0.76535-12.122 0.23857-9.6805-2.7584-14.15-6.3852-16.938-3.6269-2.7882-8.9498-2.7435-10.87-2.5758l-5e-5 -5e-5c-1.6094 0.14032-8.3797 1.7644-11.54 8.1361z" fill="#282828"/>
   <g fill="#fcc624">
    <path d="m-992.13-871.73c-1.9072 0.91634-6.299 0.89771-7.3644 2.723-1.1697 2.0078-0.41346 4.2316-0.40231 6.7945 4e-3 1.814-0.0261 3.8331-0.78965 5.9824-0.6259 1.7694-0.8382 2.3952 0.059 3.9523 0.89776 1.5608 4.7941 2.3096 10.065 3.5687 5.2747 1.2554 3.5946 0.3278 9.4989 2.6336 3.658 1.4304 8.8209 3.185 12.166 0.57368 1.233-0.96482 3.2557-3.1476 3.3786-5.2747 0.0708-1.2144-0.041-2.5107-0.33152-3.2967-0.96482-2.6226-2.8944-3.7438-4.727-6.4854-3.3563-5.0922-6.9212-9.9198-9.7709-14.159-2.0115-2.9987-3.6282-3.7251-4.9953-3.4867-4.2019 0.74127-2.8459 4.5818-6.7871 6.4742h6e-5z"/>
    <path d="m-938.69-876.07c-1.8508 1.3075-1.4499 5.2265-1.5585 7.2909-0.16486 3.1584-0.18738 6.6802-0.29597 8.0814-0.17987 2.3191-1.937 7.5569-1.7234 10.03 0.20982 2.469 0.38961 3.9152 1.9257 5.3314 1.5398 1.4162 4.2486 2.4727 7.5943 1.9894 3.3457-0.48335 4.612-2.5627 6.7814-4.1886 2.1655-1.626 4.3948-3.5555 7.2571-5.3914 2.8624-1.8396 7.4707-4.8519 8.1339-5.6648 0.66315-0.81675 1.1127-1.5211 0.63319-2.5926-0.47584-1.0716-2.1468-2.7275-3.9714-4.2337-4.7581-3.9339-2.704-7.5907-4.6907-9.5238-0.60612-0.65306-1.0566-1.013-1.76-1.1562-3.7975-0.77336-4.8407 0.71818-7.0705 0.49904-2.4043-0.23624-1.5004 0.29233-6.4359-0.36627-1.6989-0.19298-3.6464-0.8657-4.8192-0.10437z"/>
    <path d="m-967.01-919.66c0.043 0.0454 0.027 0.12592 0.0748 0.17351 0.56211 0.55986 1.2122 1.1087 1.7791 1.7508 0.65174 0.73833 1.249 1.5642 1.8037 2.0702 1.02 0.93048 1.9889 1.4278 3.4045 1.6025 2.7338 0.33744 4.7778-0.42063 7.0833-1.9411 1.0848-0.71567 2.5869-2.0352 3.4554-2.6876 1.4463-1.0885 1.86-1.0027 2.2887-1.5506 0.44361-0.57029 0.65977-2.0613 0.52932-2.7658-0.10434-0.54426-0.29446-0.90578-0.88343-1.2786-0.65609-0.41373-1.7855-0.84986-3.7425-1.5133l-4e-3 -4e-3c-1.0014-0.36597-2.0331-0.73471-2.9205-1.0734-1.9868-0.77158-3.2813-1.3562-5.0881-1.2115-0.8309 0.0665-1.6488 0.24502-2.3522 0.5181v4e-3c-1.3235 0.5567-2.6043 1.4128-3.6555 2.1491-0.92443 0.64489-1.8713 1.5022-2.4192 2.382-0.32477 0.52056-0.83883 1.5946-0.35928 2.2122 1e-3 2e-3 1.2248 0.62838 2.4529 1.3546 1.9855 1.1741 4.2536 1.7805 6.2786 1.6677 1.6106-0.0897 3.4084-0.5984 4.7065-1.2232 1.3065-0.62888 2.913-1.6206 4.4788-2.8289 0.24233-0.17895 0.70393-0.6322 0.99251-0.76895 0.25447-0.12055 1.0747-0.0506 1.0371 0.22794-0.0295 0.21812-0.9928 0.60746-1.34 0.86536-1.7129 1.2722-3.6199 2.5182-4.8594 3.0895-1.2806 0.59021-3.4359 1.2717-4.8926 1.3576-1.3308 0.0785-2.4609-0.0691-3.6177-0.46029-1.1185-0.3782-1.7815-0.70659-2.9724-1.3944-0.37981-0.21936-0.74495-0.40248-1.259-0.72344z"/>
   </g>
   <path d="m-950.81-936.43c-2.182-0.0258-4.289 1.667-4.9817 3.9489-0.57372 1.9036-0.54769 3.4162-0.45457 4.2433v1e-4c0.64086 0.19371 1.3076 0.44714 2.0714 0.74143-0.47315-1.0655-0.43951-2.4477 0.18633-3.5877 0.89413-1.6355 2.6637-2.1608 3.9527-1.1698 1.2853 0.99094 1.6057 3.1182 0.70786 4.7537-0.32416 0.59236-0.76377 1.0394-1.2555 1.3225 0.8531 0.2943 1.5386 0.54389 2.0938 0.77115 0.71609-0.90906 1.6644-2.3592 2.0639-3.5988 0.65013-2.0169 0.14908-5.5956-2.5631-6.9741-0.59329-0.30152-1.2101-0.44348-1.821-0.45071zm-14.267 0.97055c-0.3476-6.2e-4 -0.71966 0.0643-1.1167 0.20287h-1e-4c-1.7211 0.59975-2.3768 3.4945-1.7695 6.1172 0.33532 1.4455 0.92758 2.8201 1.8106 3.6733 0.18255-0.14153 0.36878-0.27936 0.55511-0.40603 0.14522-0.10428 0.29048-0.20493 0.43208-0.30183-1.1139-0.54387-1.8478-2.2315-1.654-3.867 0.20118-1.7025 1.3337-2.7084 2.5296-2.2427s2.0005 2.2278 1.7994 3.9304c-0.026 0.22349-0.067 0.43588-0.12283 0.63336 0.35386-0.18255 0.67426-0.32786 0.97234-0.44338 0.0746-0.0298 0.14524-0.0597 0.21604-0.082 0.11175-0.85688 0.0969-1.792-0.0895-2.7271-0.52182-2.5681-1.6854-4.4837-3.5625-4.4871zm18.096 15.951c-0.40982 0.21233-1.1252 0.51036-2.2168 1.3561-0.79346 0.61845-2.2613 1.9037-3.3863 2.6823-0.73464 0.5086-1.5387 0.94834-2.3297 1.2927-1.1384 0.49571-2.2497 0.79394-3.0872 0.81592-3.0023 0.15876-4.4304-0.58481-5.7992-2.0113-0.57415-0.59836-1.0091-1.2539-1.7334-2.0537-0.32088-0.35435-0.76487-0.82515-1.2176-1.1487-0.0123 0.39317-1.2728 8.7845-2.9691 12.494-1.6964 3.7096-1.6132 2.4492-2.7532 6.3266-1.5832 1.4366-3.3189 5.2964-4.4616 8.6188-1.1788 3.9005-2.072 6.9082-2.1458 11.277-0.58917-1.1743-1.0129-2.4376-1.1795-3.8117-0.58684-4.8253 0.6906-10.581 4.5042-14.724 0.16144-0.17542 0.15809-0.24712 0.0865-0.24259-0.0557 4e-3 -0.15273 0.0532-0.24566 0.13611-4.7627 4.2494-5.8951 12.087-5.4053 15.589 0.35016 2.5036 1.0033 4.6639 2.3323 6.4201 3e-4 4e-3 5.1e-4 9e-3 7.9e-4 0.013 0.0225 0.0256 0.0454 0.0506 0.0681 0.0759 0.34889 0.44965 0.74239 0.87279 1.1886 1.2674l1e-4 1e-4c0.77796 0.85892 1.7492 1.7964 3.7274 3.2999 3.6404 2.7667 6.1917 4.2275 6.6937 6.0268 0.66826 2.3951-0.82965 3.9789-2.6974 4.9528 1.3656 1.3664 5.7251 4.1657 13.675 3.8158 7.0011-0.30808 11.391-2.9577 15.139-7.5294 0.024-1.052 0.13908-2.8124 0.19118-4.7126 0.0497-1.8148 0.0602-3.6321 0.33798-5.0416 0.0654-0.3317 0.19052-0.64586 0.30252-0.92211 0.45723-1.1279 1.6878-1.8962 2.8654-1.9516 0.61911-0.0291 1.269-0.0739 1.8903 0.055 0.11485-0.89748 0.20416-1.7607 0.26695-2.5999 0.80223-0.23263 2.2131-0.45213 3.908-0.50866 2.6262-0.0876 5.772 0.15745 7.3605 1.1536-0.35389-0.30953-0.78763-0.58258-1.2496-0.80364-1.8584-0.88931-4.4038-1.1885-6.9982-1.2691 0.69332-1.8405 1.41-4.4805 1.334-6.4553-0.19941-5.1833-2.776-9.1759-6.448-11.953-0.0912-0.069-0.18009-0.12132-0.21456-0.12649-0.0345-5e-3 -0.0146 0.0368 0.11194 0.15661 4.2524 4.0253 5.6738 8.6098 5.3195 13.058-0.13829 1.7362-0.8917 3.7042-1.7539 5.2944-0.40403-6.6e-4 -0.88059 0.0204-1.2882 0.0276 0.20603-5.4485-0.86512-10.02-3.9021-16.384-0.2906-0.55134-1.6806-2.8897-2.5103-3.5497-0.64841-3.1723-0.73383-3.0166-2.031-5.9207-1.9674-4.4042-2.6803-9.4948-3.2802-12.486z" fill="#f5f5f5"/>
   <g fill="#282828">
    <path d="m-923.26-876.61c0.0654-0.1228 0.19785-0.61524 0.20787-0.71525 0.25022-2.4938-4.6011-3.055-8.3772-2.929-1.7134 0.0571-3.0488 0.25922-3.8462 0.49467-1.3893 0.41016-2.0734 1.3511-2.2273 2.5282-0.3116 2.383 0.39553 7.4171 2.76 8.5185 2.4451 1.1389 6.1479-0.48679 8.3337-2.939 1.4801-1.6605 2.4227-3.5938 3.1492-4.9581z"/>
    <path d="m-960.41-926.8c-0.16025-0.23854-0.82757-0.11557-1.1481 0-0.31687 0.11929-0.56288 0.46596-0.43236 0.70082 0.0671 0.11927 0.21245 0.17895 0.32425 0.15655 0.17149-0.0373 0.35414-0.22741 0.58523-0.40259 0.24603-0.19012 0.60386-0.35782 0.67092-0.45478z"/>
    <path d="m-958.34-926.79c-0.0969-0.10064 1.0848-0.34297 1.5506 0.0223 0.46962 0.3653 0.43984 0.6523 0.29822 0.80514-0.14907 0.15655-1.5246-0.69703-1.8488-0.82755v6e-5z"/>
   </g>
  </g>
 </g>
</svg>
