<svg width="36" height="36" viewBox="0 0 36 36" fill="none" xmlns="http://www.w3.org/2000/svg">
<g clip-path="url(#clip0_2_23)">
<path d="M30.3435 23.6895C30.4953 23.6022 30.6216 23.4765 30.7095 23.325C30.7976 23.1732 30.8441 23.001 30.8445 22.8255L30.8625 17.0385C30.8629 16.863 30.9094 16.6908 30.9975 16.539C31.0859 16.3873 31.2126 16.2616 31.365 16.1745L34.5 14.37C34.6521 14.283 34.8243 14.2375 34.9995 14.238C35.175 14.2384 35.3472 14.285 35.499 14.373C35.6508 14.4604 35.777 14.5861 35.865 14.7375C35.9526 14.8894 35.9986 15.0617 35.9985 15.237V25.758C35.9984 25.9339 35.9518 26.1067 35.8636 26.2589C35.7754 26.4112 35.6486 26.5374 35.496 26.625L23.6565 33.426C23.5053 33.5126 23.3342 33.5581 23.16 33.5581C22.9858 33.5581 22.8147 33.5126 22.6635 33.426L13.3725 28.113C13.2194 28.0256 13.0921 27.8994 13.0035 27.747C12.915 27.5943 12.8684 27.421 12.8685 27.2445V21.939C12.8685 21.933 12.8745 21.93 12.8805 21.933C12.8865 21.936 12.8925 21.933 12.8925 21.9255V21.9195C12.8925 21.915 12.8955 21.912 12.8985 21.909L20.5515 17.514C20.5575 17.5095 20.5545 17.499 20.547 17.499C20.5458 17.499 20.5447 17.4987 20.5436 17.4982C20.5426 17.4977 20.5417 17.4969 20.541 17.496C20.5403 17.4952 20.5399 17.4942 20.5396 17.4932C20.5393 17.4921 20.5393 17.4911 20.5395 17.49L20.5545 12.2895C20.5552 12.1134 20.5094 11.9401 20.4217 11.7874C20.334 11.6346 20.2075 11.5077 20.055 11.4195C19.9029 11.3317 19.7304 11.2855 19.5548 11.2855C19.3791 11.2855 19.2066 11.3317 19.0545 11.4195L13.368 14.6985C13.2163 14.7858 13.0443 14.8317 12.8693 14.8317C12.6942 14.8317 12.5222 14.7858 12.3705 14.6985L6.6645 11.4135C6.51253 11.3263 6.34033 11.2805 6.16512 11.2808C5.9899 11.281 5.81782 11.3273 5.6661 11.4149C5.51438 11.5025 5.38832 11.6285 5.30056 11.7801C5.2128 11.9318 5.16639 12.1038 5.166 12.279V21.6795C5.16606 21.8547 5.12009 22.0269 5.03269 22.1788C4.9453 22.3307 4.81954 22.457 4.668 22.545C4.51669 22.6328 4.34496 22.6794 4.17 22.68C3.99481 22.6805 3.82257 22.635 3.6705 22.548L0.504 20.7375C0.350907 20.6501 0.223612 20.5239 0.135 20.3715C0.0462145 20.2184 -0.000369651 20.0445 3.75607e-08 19.8675L0.0285 3.438C0.029044 3.26301 0.0754768 3.09122 0.163164 2.93978C0.250851 2.78834 0.376725 2.66255 0.528222 2.57496C0.679719 2.48737 0.851539 2.44105 1.02653 2.44062C1.20153 2.44019 1.37357 2.48566 1.5255 2.5725L12.3705 8.802C12.5222 8.88926 12.6942 8.93518 12.8693 8.93518C13.0443 8.93518 13.2163 8.88926 13.368 8.802L24.21 2.5725C24.362 2.48547 24.5343 2.43994 24.7095 2.4405C24.885 2.44086 25.0572 2.48742 25.209 2.5755C25.361 2.66329 25.4872 2.78951 25.575 2.9415C25.662 3.09358 25.7075 3.26582 25.707 3.441V19.875C25.707 20.0505 25.662 20.223 25.5735 20.376C25.4853 20.5282 25.3585 20.6544 25.206 20.742L19.5285 24.012C19.3758 24.1 19.249 24.2268 19.161 24.3795C19.0732 24.5318 19.0271 24.7047 19.0275 24.8805C19.0277 25.0565 19.0742 25.2293 19.1625 25.3815C19.2515 25.5341 19.3793 25.6604 19.533 25.7475L22.665 27.531C22.816 27.6165 22.9865 27.6615 23.16 27.6615C23.3348 27.6613 23.5065 27.6152 23.658 27.528L30.3435 23.688V23.6895ZM31.0005 8.9475C31.0003 9.12399 31.0469 9.29737 31.1355 9.45C31.2249 9.60281 31.3533 9.72912 31.5075 9.816C31.6612 9.90284 31.8351 9.94747 32.0116 9.94536C32.1881 9.94325 32.3609 9.89448 32.5125 9.804L35.514 8.004C35.662 7.91525 35.7845 7.78967 35.8695 7.6395C35.9549 7.48905 35.9999 7.31902 36 7.146V3.48C35.9996 3.30339 35.9526 3.13002 35.8635 2.9775C35.7742 2.82498 35.6461 2.69882 35.4923 2.61187C35.3384 2.52492 35.1642 2.48029 34.9875 2.4825C34.811 2.48448 34.6381 2.53313 34.4865 2.6235L31.4865 4.4235C31.338 4.51206 31.2149 4.63765 31.1295 4.788C31.0446 4.93862 31.0002 5.10863 31.0005 5.2815V8.949V8.9475Z" fill="#007FFF"/>
</g>
<defs>
<clipPath id="clip0_2_23">
<rect width="36" height="36" fill="white"/>
</clipPath>
</defs>
</svg>
