<?xml version="1.0" encoding="UTF-8"?>
<!-- Created with Inkscape (http://www.inkscape.org/) -->
<svg width="9.421mm" height="9.525mm" version="1.1" viewBox="0 0 9.421 9.525" xmlns="http://www.w3.org/2000/svg" xmlns:xlink="http://www.w3.org/1999/xlink">
 <defs>
  <linearGradient id="linearGradient1475" x1="150.96" x2="112.03" y1="192.35" y2="137.27" gradientTransform="matrix(.047676 0 0 .048136 73.429 121)" gradientUnits="userSpaceOnUse">
   <stop stop-color="#ffd43b" offset="0"/>
   <stop stop-color="#ffe873" offset="1"/>
  </linearGradient>
  <linearGradient id="linearGradient1478" x1="26.649" x2="135.67" y1="20.604" y2="114.4" gradientTransform="matrix(.047676 0 0 .048136 73.429 121)" gradientUnits="userSpaceOnUse">
   <stop stop-color="#5a9fd4" offset="0"/>
   <stop stop-color="#306998" offset="1"/>
  </linearGradient>
 </defs>
 <g transform="translate(-74.7 -121.99)">
  <path d="m79.354 121.99c-0.38847 2e-3 -0.75944 0.0349-1.0859 0.0927-0.9616 0.16988-1.1362 0.52546-1.1362 1.1812v0.86604h2.2724v0.28868h-3.1252c-0.66041 0-1.2387 0.39695-1.4196 1.1521-0.20864 0.86555-0.2179 1.4057 0 2.3094 0.16153 0.67274 0.54728 1.1521 1.2077 1.1521h0.78129v-1.0382c0-0.75003 0.64894-1.4116 1.4196-1.4116h2.2697c0.63181 0 1.1362-0.52021 1.1362-1.1547v-2.1638c0-0.61583-0.51952-1.0784-1.1362-1.1812-0.39036-0.065-0.79539-0.0945-1.1839-0.0927zm-1.2289 0.69655c0.23472 0 0.4264 0.19481 0.4264 0.43434-1e-6 0.23869-0.19168 0.4317-0.4264 0.4317-0.23556 0-0.4264-0.19301-0.4264-0.4317 0-0.23953 0.19084-0.43434 0.4264-0.43434z" fill="url(#linearGradient1478)" stroke-width=".08475"/>
  <path d="m81.957 124.42v1.0091c0 0.78231-0.66325 1.4408-1.4196 1.4408h-2.2697c-0.62171 0-1.1362 0.53211-1.1362 1.1547v2.1638c0 0.61582 0.5355 0.97804 1.1362 1.1547 0.7193 0.2115 1.4091 0.24973 2.2697 0 0.57208-0.16564 1.1362-0.49898 1.1362-1.1547v-0.86604h-2.2697v-0.28869h3.4059c0.66042 0 0.90651-0.46065 1.1362-1.1521 0.23724-0.71181 0.22715-1.3963 0-2.3094-0.16321-0.65745-0.47493-1.1521-1.1362-1.1521zm-1.2765 5.4796c0.23556 0 0.4264 0.19301 0.4264 0.43169 0 0.23954-0.19084 0.43435-0.4264 0.43435-0.23472 0-0.4264-0.19481-0.4264-0.43435 0-0.23868 0.19168-0.43169 0.4264-0.43169z" fill="url(#linearGradient1475)" stroke-width=".08475"/>
  <path transform="matrix(.26458 0 0 .26458 74.7 121.99)" d="m12.644 5.8576c-0.80121-0.15735-1.3977-1.0015-1.2737-1.8025 0.12418-0.80229 0.7957-1.3975 1.5767-1.3975 0.76456 0 1.429 0.57549 1.569 1.359 0.19087 1.068-0.80761 2.05-1.8719 1.841z" fill="#fff" stroke-width=".034072"/>
  <path transform="matrix(.26458 0 0 .26458 74.7 121.99)" d="m22.266 33.106c-0.75048-0.19498-1.2436-0.82434-1.2436-1.5872 0-0.43806 0.13458-0.77793 0.43539-1.0995 0.41512-0.4438 1.0418-0.61547 1.6058-0.43991 0.53915 0.1678 0.97918 0.64868 1.0972 1.1991 0.05435 0.25344 0.0212 0.68926-0.0706 0.92803-0.16325 0.42462-0.57104 0.81812-0.98945 0.95476-0.24573 0.08025-0.6207 0.10034-0.83476 0.04472z" fill="#fff" stroke-width=".034072"/>
 </g>
</svg>
