<svg width="36" height="36" viewBox="0 0 36 36" fill="none" xmlns="http://www.w3.org/2000/svg">
<path d="M21.345 18.006C21.345 18.8953 20.9918 19.7482 20.3632 20.3771C19.7345 21.0061 18.8818 21.3596 17.9925 21.36C17.103 21.36 16.2499 21.0066 15.6209 20.3776C14.9919 19.7486 14.6385 18.8955 14.6385 18.006C14.6385 17.1167 14.9917 16.2638 15.6203 15.6349C16.249 15.0059 17.1017 14.6524 17.991 14.652C18.8805 14.652 19.7336 15.0054 20.3626 15.6344C20.9916 16.2634 21.345 17.1165 21.345 18.006V18.006ZM25.317 1.971C23.298 1.971 20.6565 3.411 17.985 5.904C15.315 3.4245 12.672 2.001 10.6545 2.001C10.0395 2.001 9.48 2.1405 8.9955 2.418C6.933 3.6075 6.471 7.314 7.536 11.9655C2.97 13.3755 0 15.63 0 18.006C0 20.391 2.985 22.6515 7.5645 24.051C6.5085 28.7205 6.9795 32.433 9.0465 33.621C9.5265 33.9015 10.0815 34.0335 10.6995 34.0335C12.717 34.0335 15.36 32.5935 18.0315 30.0975C20.7015 32.5785 23.3445 34.002 25.362 34.002C25.977 34.002 26.5365 33.867 27.021 33.5895C29.082 32.4015 29.5455 28.695 28.4805 24.042C33.03 22.644 36 20.385 36 18.006C36 15.621 33.015 13.3605 28.4355 11.958C29.4915 7.293 29.0205 3.5775 26.9535 2.388C26.4765 2.112 25.9215 1.9725 25.3155 1.971H25.317ZM25.3095 3.606V3.615C25.647 3.615 25.9185 3.681 26.1465 3.8055C27.1455 4.3785 27.579 6.558 27.2415 9.3615C27.1605 10.0515 27.0285 10.779 26.8665 11.5215C25.4265 11.1675 23.8575 10.896 22.206 10.7205C21.216 9.363 20.1885 8.13 19.1535 7.05C21.5415 4.83 23.784 3.612 25.311 3.6075L25.3095 3.606ZM10.6545 3.636C12.1725 3.636 14.4255 4.848 16.8195 7.056C15.7905 8.136 14.7645 9.3615 13.7895 10.719C12.129 10.8945 10.5585 11.166 9.12 11.526C8.952 10.791 8.8275 10.08 8.739 9.396C8.394 6.594 8.82 4.416 9.81 3.8355C10.095 3.7005 10.41 3.645 10.6545 3.6375V3.636ZM17.9775 8.211C18.66 8.913 19.3425 9.699 20.0175 10.557C19.3575 10.527 18.6825 10.506 18 10.506C17.31 10.506 16.6275 10.521 15.96 10.557C16.62 9.699 17.3025 8.913 17.9775 8.2095V8.211ZM18 12.15C19.11 12.15 20.2155 12.201 21.303 12.2895C21.912 13.1625 22.506 14.094 23.0775 15.0795C23.6355 16.0395 24.1425 17.0145 24.6045 17.9985C24.1425 18.981 23.6355 19.9635 23.085 20.9235C22.515 21.9135 21.9255 22.8555 21.315 23.7285C20.223 23.823 19.116 23.8755 18 23.8755C16.89 23.8755 15.7845 23.823 14.697 23.736C14.088 22.863 13.494 21.93 12.9225 20.946C12.3645 19.986 11.8575 19.011 11.3955 18.027C11.85 17.0415 12.3645 16.0575 12.915 15.096C13.485 14.106 14.0745 13.167 14.685 12.294C15.777 12.198 16.884 12.147 18 12.147V12.15ZM12.5475 12.531C12.1875 13.0965 11.8275 13.6755 11.4915 14.271C11.154 14.856 10.839 15.444 10.539 16.032C10.1415 15.048 9.804 14.067 9.525 13.1115C10.485 12.8865 11.4975 12.687 12.5475 12.5325V12.531ZM23.4375 12.531C24.48 12.6855 25.485 12.876 26.4465 13.1115C26.1765 14.0595 25.839 15.0345 25.4565 16.011C25.1565 15.426 24.8415 14.8365 24.4965 14.25C24.159 13.662 23.799 13.089 23.439 12.531H23.4375ZM28.032 13.5435C28.758 13.7685 29.448 14.019 30.0945 14.2905C32.6925 15.4005 34.3725 16.8525 34.3725 18.0045C34.365 19.1565 32.685 20.6145 30.087 21.717C29.457 21.987 28.767 22.23 28.0545 22.4565C27.6345 21.0195 27.0855 19.5225 26.4045 17.9865C27.0795 16.461 27.6195 14.9715 28.032 13.5405V13.5435ZM7.9395 13.5495C8.3565 14.9895 8.907 16.485 9.5895 18.0195C8.9145 19.545 8.3715 21.0345 7.9605 22.4655C7.2345 22.2405 6.5445 21.9885 5.9055 21.7155C3.3075 20.61 1.6275 19.1565 1.6275 18.0045C1.6275 16.8525 3.3075 15.3915 5.9055 14.2905C6.5355 14.0205 7.2255 13.7775 7.9395 13.5495V13.5495ZM25.4565 19.9695C25.854 20.955 26.1915 21.9375 26.4705 22.8915C25.5105 23.127 24.4965 23.3265 23.4465 23.4765C23.8065 22.914 24.1665 22.3335 24.504 21.7395C24.8415 21.1545 25.1565 20.5575 25.458 19.9695H25.4565ZM10.539 19.9995C10.839 20.5875 11.154 21.174 11.499 21.762C11.844 22.347 12.1965 22.92 12.5565 23.4765C11.514 23.3235 10.509 23.1315 9.5475 22.8975C9.8175 21.9525 10.1565 20.9745 10.5375 19.998L10.539 19.9995ZM26.88 24.48C27.048 25.2195 27.18 25.932 27.261 26.6145C27.606 29.4165 27.18 31.5945 26.19 32.1765C25.9695 32.3115 25.683 32.3685 25.3455 32.3685C23.8275 32.3685 21.5745 31.158 19.1805 28.9485C20.2095 27.8685 21.2355 26.6445 22.2105 25.2885C23.871 25.1115 25.4415 24.8385 26.88 24.4785V24.48ZM9.135 24.495C10.575 24.846 12.144 25.1175 13.7955 25.293C14.7855 26.6505 15.813 27.8835 16.848 28.962C14.4555 31.1865 12.21 32.4045 10.683 32.4045C10.353 32.397 10.074 32.3295 9.8535 32.2065C8.8545 31.6365 8.421 29.4555 8.7585 26.652C8.8395 25.962 8.9715 25.236 9.1335 24.495H9.135ZM15.975 25.455C16.635 25.485 17.31 25.506 17.9925 25.506C18.6825 25.506 19.365 25.491 20.0325 25.455C19.3725 26.313 18.69 27.0975 18.015 27.8025C17.3325 27.0975 16.65 26.313 15.975 25.455Z" fill="#61DAFB"/>
</svg>
