<svg width="36" height="36" viewBox="0 0 36 36" fill="none" xmlns="http://www.w3.org/2000/svg">
<g clip-path="url(#clip0_2_16)">
<path d="M24.951 24.756C26.256 24.6435 27.2655 23.496 27.201 22.125C27.1305 20.754 26.007 19.653 24.6375 19.653H24.546C23.8664 19.6772 23.2242 19.9704 22.7606 20.468C22.2971 20.9656 22.0501 21.6269 22.074 22.3065C22.119 23.025 22.413 23.61 22.815 24.036C21.243 27.093 18.8835 29.34 15.3075 31.2285C12.903 32.4855 10.3635 32.9595 7.8915 32.6235C5.8245 32.331 4.2075 31.4085 3.2175 29.925C1.7355 27.6765 1.6005 25.251 2.835 22.824C3.735 21.069 5.0835 19.7895 5.9835 19.1595C5.7118 18.4061 5.50113 17.6321 5.3535 16.845C-1.302 21.612 -0.624 28.128 1.398 31.2075C2.904 33.4545 5.9835 34.8915 9.354 34.8915C10.254 34.8915 11.199 34.8255 12.1185 34.6005C17.964 33.477 22.3905 29.9715 24.93 24.8025L24.951 24.756ZM32.973 19.137C29.493 15.045 24.366 12.798 18.522 12.798H17.757C17.3775 11.967 16.5015 11.4495 15.51 11.4495H15.4425C14.028 11.4495 12.9255 12.6645 12.972 14.079C13.017 15.426 14.163 16.551 15.534 16.551H15.645C16.1313 16.5322 16.6019 16.3739 17.0006 16.0948C17.3993 15.8158 17.7093 15.4279 17.8935 14.9775H18.726C22.1895 14.9775 25.4685 15.9885 28.458 17.9655C30.7485 19.473 32.391 21.45 33.3135 23.811C34.1205 25.743 34.077 27.6315 33.246 29.2065C31.9635 31.677 29.805 32.982 26.952 32.982C25.1535 32.982 23.4015 32.4195 22.5015 32.016C21.9615 32.463 21.0615 33.2055 20.4105 33.6555C22.3875 34.5525 24.3885 35.07 26.3205 35.07C30.7035 35.07 33.9615 32.5995 35.199 30.216C36.546 27.519 36.435 22.98 32.994 19.092L32.973 19.137ZM9.735 25.563C9.78 26.9115 10.9245 28.035 12.297 28.035H12.387C12.7248 28.0274 13.0576 27.9522 13.3659 27.814C13.6742 27.6758 13.9517 27.4772 14.182 27.2301C14.4124 26.9829 14.591 26.6922 14.7072 26.375C14.8235 26.0578 14.8751 25.7205 14.859 25.383C14.859 24.033 13.6905 22.9125 12.3195 22.9125H12.2295C12.1395 22.9125 12.0045 22.9125 11.8905 22.956C10.026 19.809 9.2385 16.4355 9.5325 12.798C9.7125 10.056 10.6125 7.6725 12.228 5.6955C13.578 4.0095 16.1175 3.1755 17.8485 3.1335C22.7025 3.042 24.726 9.09 24.882 11.4945L27.129 12.1695C26.6115 4.7955 22.029 0.93 17.646 0.93C13.53 0.93 9.735 3.9195 8.205 8.3025C6.1155 14.145 7.4865 19.7655 10.05 24.261C9.825 24.5535 9.69 25.0695 9.735 25.563V25.563Z" fill="#764ABC"/>
</g>
<defs>
<clipPath id="clip0_2_16">
<rect width="36" height="36" fill="white"/>
</clipPath>
</defs>
</svg>
