<svg width="36" height="36" viewBox="0 0 36 36" fill="none" xmlns="http://www.w3.org/2000/svg">
<g clip-path="url(#clip0_2_21)">
<path d="M18.0015 7.2C13.2015 7.2 10.2015 9.6 9.0015 14.4C10.8015 12 12.9015 11.1 15.3015 11.7C16.671 12.042 17.649 13.035 18.7335 14.136C20.499 15.927 22.5405 18 27.0015 18C31.8015 18 34.8015 15.6 36.0015 10.8C34.2015 13.2 32.1015 14.1 29.7015 13.5C28.332 13.158 27.354 12.165 26.2695 11.064C24.5055 9.273 22.464 7.2 18.0015 7.2ZM9.0015 18C4.2015 18 1.2015 20.4 0.00150001 25.2C1.8015 22.8 3.9015 21.9 6.3015 22.5C7.671 22.842 8.649 23.835 9.7335 24.936C11.499 26.727 13.5405 28.8 18.0015 28.8C22.8015 28.8 25.8015 26.4 27.0015 21.6C25.2015 24 23.1015 24.9 20.7015 24.3C19.332 23.958 18.354 22.965 17.2695 21.864C15.5055 20.073 13.464 18 9.0015 18Z" fill="#06B6D4"/>
</g>
<defs>
<clipPath id="clip0_2_21">
<rect width="36" height="36" fill="white"/>
</clipPath>
</defs>
</svg>
