<svg width="36" height="36" viewBox="0 0 36 36" fill="none" xmlns="http://www.w3.org/2000/svg">
<g clip-path="url(#clip0_2_44)">
<path d="M34.725 3.8805L27.315 0.314997C26.8962 0.113332 26.4251 0.0468653 25.9669 0.124802C25.5087 0.202739 25.086 0.421223 24.7575 0.749997L10.5675 13.695L4.3875 9.003C4.10869 8.79152 3.76465 8.68429 3.41505 8.6999C3.06546 8.71552 2.73235 8.853 2.4735 9.0885L0.490501 10.8915C0.335971 11.032 0.212478 11.2032 0.127926 11.3941C0.0433736 11.5851 -0.00037344 11.7916 -0.000514641 12.0004C-0.000655842 12.2093 0.0428119 12.4158 0.127106 12.6069C0.211399 12.798 0.334662 12.9693 0.489001 13.11L5.8485 18L0.489001 22.89C0.334662 23.0307 0.211399 23.202 0.127106 23.3931C0.0428119 23.5842 -0.000655842 23.7907 -0.000514641 23.9996C-0.00037344 24.2084 0.0433736 24.4149 0.127926 24.6059C0.212478 24.7968 0.335971 24.968 0.490501 25.1085L2.475 26.91C2.73385 27.1455 3.06696 27.283 3.41655 27.2986C3.76615 27.3142 4.11019 27.207 4.389 26.9955L10.569 22.3035L24.759 35.2485C25.0872 35.5773 25.5096 35.7959 25.9676 35.8738C26.4256 35.9518 26.8965 35.8853 27.315 35.6835L34.728 32.118C35.1094 31.9339 35.4311 31.646 35.6561 31.2872C35.8811 30.9284 36.0003 30.5135 36 30.09V5.9085C36 5.48469 35.8804 5.0695 35.6548 4.71071C35.4293 4.35193 35.1069 4.06414 34.725 3.8805ZM27.006 26.172L16.239 18L27.006 9.828V26.172V26.172Z" fill="#007ACC"/>
</g>
<defs>
<clipPath id="clip0_2_44">
<rect width="36" height="36" fill="white"/>
</clipPath>
</defs>
</svg>
